<svg width="19" height="19" viewBox="0 0 19 19" fill="none" xmlns="http://www.w3.org/2000/svg">
<g clip-path="url(#clip0_7864_462412)">
<path fill-rule="evenodd" clip-rule="evenodd" d="M19 9.5C19 4.25329 14.7467 -6.36665e-06 9.5 -6.1373e-06C4.2533 -5.90796e-06 -6.42523e-07 4.25329 -4.15258e-07 9.5C-1.83841e-07 14.7467 4.2533 19 9.5 19C14.7467 19 19 14.7467 19 9.5ZM10.9057 8.09423C11.6866 8.87509 12.8723 9.04109 15.2438 9.3731L16.15 9.49997L15.2438 9.62683C12.8723 9.95884 11.6866 10.1248 10.9057 10.9057C10.1249 11.6866 9.95888 12.8723 9.62687 15.2438L9.5 16.15L9.37313 15.2438C9.04112 12.8723 8.87512 11.6866 8.09426 10.9057C7.3134 10.1248 6.12766 9.95884 3.75618 9.62683L2.85 9.49997L3.75619 9.3731C6.12767 9.0411 7.3134 8.87509 8.09427 8.09423C8.87513 7.31337 9.04113 6.12763 9.37314 3.75616L9.5 2.84999L9.62686 3.75615C9.95887 6.12763 10.1249 7.31337 10.9057 8.09423Z" fill="url(#paint0_linear_7864_462412)"/>
</g>
<defs>
<linearGradient id="paint0_linear_7864_462412" x1="-1.1372e-06" y1="-1.97917" x2="14.7238" y2="17.5068" gradientUnits="userSpaceOnUse">
<stop offset="0.0701505" stop-color="#FFBF00"/>
<stop offset="0.357176" stop-color="#F6BB2A"/>
<stop offset="0.810379" stop-color="#F3584E"/>
<stop offset="1" stop-color="#E078D1"/>
</linearGradient>
<clipPath id="clip0_7864_462412">
<rect width="18.9187" height="18.9187" fill="white"/>
</clipPath>
</defs>
</svg>
